<svg viewBox="0 0 324.8 268.76" xmlns="http://www.w3.org/2000/svg" xmlns:xlink="http://www.w3.org/1999/xlink"><linearGradient id="a" gradientTransform="matrix(.70710678 .70710678 -.70710678 .70710678 129.03 -81.09)" gradientUnits="userSpaceOnUse" x1="83.8" x2="241" y1="115.21" y2="115.21"><stop offset="0" stop-color="#ce4141"/><stop offset="1" stop-color="#f05454"/></linearGradient><linearGradient id="b" x1="83.81" x2="168.94" xlink:href="#a" y1="115.21" y2="115.21"/><path d="m121.69 30.25a3.24 3.24 0 0 0 -4.42-1.19l-8.35 4.82a3.25 3.25 0 0 0 -1.19 4.43l7.92 13.69 1.32.17 12.54-7.25v-1.12z" fill="#30475e"/><path d="m115 34a4.08 4.08 0 0 1 -.31-3.4l-5.77 3.34a3.24 3.24 0 0 0 -1.19 4.42l7.92 13.64 1.33.17 6.41-3.71z" fill="#30475e" opacity=".15"/><path d="m169.61 15.38h-14.48l-.77.74v20.88l.67.86h14.23l1.22-.86v-20.88z" fill="#30475e"/><path d="m162.42 16.12.77-.74h-8.06l-.77.74v20.88l.67.86h8.06l-.67-.86z" fill="#30475e" opacity=".15"/><circle cx="162.4" cy="115.21" fill="url(#a)" r="78.6" transform="matrix(.70710678 -.70710678 .70710678 .70710678 -33.9 148.58)"/><path d="m96.85 115.21a78.61 78.61 0 0 1 72.09-78.34c-2.15-.18-4.32-.28-6.52-.28a78.62 78.62 0 0 0 0 157.23q3.3 0 6.52-.27a78.62 78.62 0 0 1 -72.09-78.34z" fill="url(#b)"/><circle cx="162.4" cy="115.21" fill="#fff" r="63" transform="matrix(.70710678 -.70710678 .70710678 .70710678 -33.9 148.58)"/><path d="m117.15 115.21a63.12 63.12 0 0 1 54.15-62.39 63 63 0 1 0 0 124.77 63.11 63.11 0 0 1 -54.15-62.38z" fill="#e8e8e8" opacity=".2"/><path d="m178.94 0h-33a3.51 3.51 0 0 0 -3.51 3.5v9.12a3.51 3.51 0 0 0 3.51 3.5h33a3.5 3.5 0 0 0 3.5-3.5v-9.12a3.5 3.5 0 0 0 -3.5-3.5z" fill="#30475e"/><path d="m157.35 12.62v-9.12a3.51 3.51 0 0 1 3.51-3.5h-15a3.5 3.5 0 0 0 -3.5 3.5v9.12a3.5 3.5 0 0 0 3.5 3.5h15a3.51 3.51 0 0 1 -3.51-3.5z" fill="#30475e" opacity=".15"/><path d="m162.42 52.19v50l.9 1.2 9.26 7.22h33.64l5.16 3.21 1.21 1.41h12.85a63.09 63.09 0 0 0 -63-63z" fill="#dd636e"/><path d="m175 53.45a63.42 63.42 0 0 0 -12.57-1.26v50l.9 1.2 9.26 7.22h2.41z" fill="#da4a54"/><g fill="#30475e"><path d="m150.78 109.36h-10.54a5.85 5.85 0 0 0 0 11.7h10.54l.58-1.24v-9.43z"/><path d="m206.74 109.36h-32.67l-1 .77v9l1 1.89h32.67a5.85 5.85 0 0 0 0-11.7z"/><path d="m140.24 115.21a5.85 5.85 0 0 1 -5.06-2.93 5.91 5.91 0 0 0 -.78 2.93 5.84 5.84 0 0 0 5.84 5.85h10.54l.58-1.24v-5.82l-.58 1.24z" opacity=".15"/><path d="m206.74 115.21h-32.67l-1-1.89v5.85l1 1.89h32.67a5.85 5.85 0 0 0 5.06-8.78 5.84 5.84 0 0 1 -5.06 2.93z" opacity=".15"/><path d="m162.42 49.27a65.94 65.94 0 1 0 65.94 65.94 66 66 0 0 0 -65.94-65.94zm32.58 116.44-1.34-2.32a2.93 2.93 0 0 0 -5.07 2.93l1.35 2.32a59.65 59.65 0 0 1 -24.55 6.58v-2.69a2.93 2.93 0 0 0 -5.85 0v2.69a59.61 59.61 0 0 1 -24.54-6.58l1.34-2.32a2.92 2.92 0 1 0 -5.06-2.93l-1.34 2.32a60.57 60.57 0 0 1 -18-18l2.31-1.34a2.92 2.92 0 1 0 -2.92-5.06l-2.33 1.37a59.61 59.61 0 0 1 -6.58-24.55h2.69a2.93 2.93 0 0 0 0-5.85h-2.69a59.57 59.57 0 0 1 6.58-24.54l2.33 1.34a2.93 2.93 0 0 0 2.91-5.08l-2.31-1.33a60.46 60.46 0 0 1 18-18l1.3 2.33a2.92 2.92 0 0 0 5.06-2.92l-1.29-2.3a59.78 59.78 0 0 1 24.55-6.59v2.69a2.93 2.93 0 1 0 5.85 0v-2.69a59.82 59.82 0 0 1 24.55 6.59l-1.35 2.32a2.93 2.93 0 0 0 5.02 2.9l1.38-2.29a60.57 60.57 0 0 1 18 18l-2.39 1.29a2.93 2.93 0 0 0 2.92 5.07l2.33-1.34a59.57 59.57 0 0 1 6.58 24.54h-2.69a2.93 2.93 0 0 0 0 5.85h2.69a59.61 59.61 0 0 1 -6.58 24.55l-2.33-1.34a2.92 2.92 0 0 0 -2.92 5.06l2.31 1.34a60.69 60.69 0 0 1 -18 18z"/><circle cx="162.47" cy="115.23" r="13.04" transform="matrix(.38461756 -.92307602 .92307602 .38461756 -6.39 220.87)"/><path d="m158.55 115.21a13.06 13.06 0 0 1 8.45-12.21 13 13 0 1 0 0 24.41 13 13 0 0 1 -8.46-12.2z" opacity=".15"/><text font-family="Cairo-Black, Cairo" font-size="28" font-weight="800" transform="translate(0 251.63)">Welcome to TimeTracker</text></g></svg>